<svg width="25" height="24" viewBox="0 0 25 24" fill="none" xmlns="http://www.w3.org/2000/svg">
<mask id="mask0_23097_3115" style="mask-type:alpha" maskUnits="userSpaceOnUse" x="0" y="0" width="25" height="24">
<rect x="0.654297" width="24" height="24" fill="#D9D9D9"/>
</mask>
<g mask="url(#mask0_23097_3115)">
<path d="M6.6543 22C6.1043 22 5.63346 21.8042 5.2418 21.4125C4.85013 21.0208 4.6543 20.55 4.6543 20V10C4.6543 9.45 4.85013 8.97917 5.2418 8.5875C5.63346 8.19583 6.1043 8 6.6543 8H7.6543V6C7.6543 4.61667 8.1418 3.4375 9.1168 2.4625C10.0918 1.4875 11.271 1 12.6543 1C14.0376 1 15.2168 1.4875 16.1918 2.4625C17.1668 3.4375 17.6543 4.61667 17.6543 6V8H18.6543C19.2043 8 19.6751 8.19583 20.0668 8.5875C20.4585 8.97917 20.6543 9.45 20.6543 10V20C20.6543 20.55 20.4585 21.0208 20.0668 21.4125C19.6751 21.8042 19.2043 22 18.6543 22H6.6543ZM6.6543 20H18.6543V10H6.6543V20ZM12.6543 17C13.2043 17 13.6751 16.8042 14.0668 16.4125C14.4585 16.0208 14.6543 15.55 14.6543 15C14.6543 14.45 14.4585 13.9792 14.0668 13.5875C13.6751 13.1958 13.2043 13 12.6543 13C12.1043 13 11.6335 13.1958 11.2418 13.5875C10.8501 13.9792 10.6543 14.45 10.6543 15C10.6543 15.55 10.8501 16.0208 11.2418 16.4125C11.6335 16.8042 12.1043 17 12.6543 17ZM9.6543 8H15.6543V6C15.6543 5.16667 15.3626 4.45833 14.7793 3.875C14.196 3.29167 13.4876 3 12.6543 3C11.821 3 11.1126 3.29167 10.5293 3.875C9.94596 4.45833 9.6543 5.16667 9.6543 6V8Z" fill="#A8A8A8"/>
</g>
</svg>
