<svg width="22" height="15" viewBox="0 0 22 15" fill="none" xmlns="http://www.w3.org/2000/svg">
<path d="M10.9998 12C12.2498 12 13.3123 11.5625 14.1873 10.6875C15.0623 9.8125 15.4998 8.75 15.4998 7.5C15.4998 6.25 15.0623 5.1875 14.1873 4.3125C13.3123 3.4375 12.2498 3 10.9998 3C9.7498 3 8.68731 3.4375 7.8123 4.3125C6.9373 5.1875 6.4998 6.25 6.4998 7.5C6.4998 8.75 6.9373 9.8125 7.8123 10.6875C8.68731 11.5625 9.7498 12 10.9998 12ZM10.9998 10.2C10.2498 10.2 9.6123 9.9375 9.08731 9.4125C8.56231 8.8875 8.2998 8.25 8.2998 7.5C8.2998 6.75 8.56231 6.1125 9.08731 5.5875C9.6123 5.0625 10.2498 4.8 10.9998 4.8C11.7498 4.8 12.3873 5.0625 12.9123 5.5875C13.4373 6.1125 13.6998 6.75 13.6998 7.5C13.6998 8.25 13.4373 8.8875 12.9123 9.4125C12.3873 9.9375 11.7498 10.2 10.9998 10.2ZM10.9998 15C8.68314 15 6.56647 14.3875 4.6498 13.1625C2.73314 11.9375 1.28314 10.2833 0.299805 8.2C0.249805 8.11667 0.216471 8.0125 0.199805 7.8875C0.183138 7.7625 0.174805 7.63333 0.174805 7.5C0.174805 7.36667 0.183138 7.2375 0.199805 7.1125C0.216471 6.9875 0.249805 6.88333 0.299805 6.8C1.28314 4.71667 2.73314 3.0625 4.6498 1.8375C6.56647 0.6125 8.68314 0 10.9998 0C13.3165 0 15.4331 0.6125 17.3498 1.8375C19.2665 3.0625 20.7165 4.71667 21.6998 6.8C21.7498 6.88333 21.7831 6.9875 21.7998 7.1125C21.8165 7.2375 21.8248 7.36667 21.8248 7.5C21.8248 7.63333 21.8165 7.7625 21.7998 7.8875C21.7831 8.0125 21.7498 8.11667 21.6998 8.2C20.7165 10.2833 19.2665 11.9375 17.3498 13.1625C15.4331 14.3875 13.3165 15 10.9998 15ZM10.9998 13C12.8831 13 14.6123 12.5042 16.1873 11.5125C17.7623 10.5208 18.9665 9.18333 19.7998 7.5C18.9665 5.81667 17.7623 4.47917 16.1873 3.4875C14.6123 2.49583 12.8831 2 10.9998 2C9.11647 2 7.38731 2.49583 5.8123 3.4875C4.2373 4.47917 3.03314 5.81667 2.1998 7.5C3.03314 9.18333 4.2373 10.5208 5.8123 11.5125C7.38731 12.5042 9.11647 13 10.9998 13Z" fill="#A8A8A8"/>
</svg>
