<svg width="25" height="24" viewBox="0 0 25 24" fill="none" xmlns="http://www.w3.org/2000/svg">
<mask id="mask0_23097_3109" style="mask-type:alpha" maskUnits="userSpaceOnUse" x="0" y="0" width="25" height="24">
<rect x="0.654297" width="24" height="24" fill="#D9D9D9"/>
</mask>
<g mask="url(#mask0_23097_3109)">
<path d="M4.6543 20C4.1043 20 3.63346 19.8042 3.2418 19.4125C2.85013 19.0208 2.6543 18.55 2.6543 18V6C2.6543 5.45 2.85013 4.97917 3.2418 4.5875C3.63346 4.19583 4.1043 4 4.6543 4H20.6543C21.2043 4 21.6751 4.19583 22.0668 4.5875C22.4585 4.97917 22.6543 5.45 22.6543 6V18C22.6543 18.55 22.4585 19.0208 22.0668 19.4125C21.6751 19.8042 21.2043 20 20.6543 20H4.6543ZM20.6543 8L13.1793 12.675C13.096 12.725 13.0085 12.7625 12.9168 12.7875C12.8251 12.8125 12.7376 12.825 12.6543 12.825C12.571 12.825 12.4835 12.8125 12.3918 12.7875C12.3001 12.7625 12.2126 12.725 12.1293 12.675L4.6543 8V18H20.6543V8ZM12.6543 11L20.6543 6H4.6543L12.6543 11ZM4.6543 8.25V6.775V6.8V6.7875V8.25Z" fill="#A8A8A8"/>
</g>
</svg>
