<svg width="101" height="122" viewBox="0 0 101 122" fill="none" xmlns="http://www.w3.org/2000/svg">
<path d="M72.3268 0H50.1689V25.4923H72.3268V0Z" fill="white"/>
<path d="M50.1685 46.2251H72.3264V82.1779C72.4276 90.8292 69.9655 99.3153 65.2529 106.557C60.5998 113.594 51.6173 121.966 34.9989 121.966C16.8977 121.966 6.34716 113.406 0.654297 108.715L14.6308 91.4743C20.1873 96.0112 25.5392 99.7435 35.0842 99.7435C42.311 99.7435 45.1915 96.7988 46.8789 94.2307C49.1729 90.6637 50.3595 86.4923 50.2878 82.2464L50.1685 46.2251Z" fill="white"/>
<path d="M38.8678 30.1318H16.71V52.3884H38.8678V30.1318Z" fill="white"/>
<path d="M83.9337 111.522C83.9337 116.265 81.5305 118.815 78.1727 118.815C74.8149 118.815 72.6162 115.785 72.6162 111.762C72.6162 107.739 74.8831 104.554 78.3602 104.554C81.8373 104.554 83.9337 107.687 83.9337 111.522ZM75.1899 111.711C75.1899 114.57 76.3319 116.675 78.292 116.675C80.2521 116.675 81.36 114.45 81.36 111.539C81.36 108.988 80.3374 106.592 78.292 106.592C76.2467 106.592 75.1899 108.903 75.1899 111.711Z" fill="white"/>
<path d="M88.3314 104.76V118.593H85.877V104.76H88.3314Z" fill="white"/>
<path d="M90.9902 118.593V104.76H93.7173L96.649 110.461C97.4037 111.952 98.0752 113.483 98.6603 115.049C98.5069 113.337 98.4387 111.368 98.4387 109.177V104.76H100.689V118.593H98.1489L95.1832 112.772C94.398 111.243 93.6981 109.671 93.0867 108.064C93.0867 109.776 93.206 111.711 93.206 114.09V118.576L90.9902 118.593Z" fill="white"/>
</svg>
